<?xml version="1.0" standalone="no"?>
<!DOCTYPE svg PUBLIC "-//W3C//DTD SVG 20010904//EN"
 "http://www.w3.org/TR/2001/REC-SVG-20010904/DTD/svg10.dtd">
<svg version="1.0" xmlns="http://www.w3.org/2000/svg"
 width="840.000000pt" height="609.000000pt" viewBox="0 0 840.000000 609.000000"
 preserveAspectRatio="xMidYMid meet">
<metadata>
Created by potrace 1.16, written by Peter Selinger 2001-2019
</metadata>
<g transform="translate(0.000000,609.000000) scale(0.100000,-0.100000)"
fill="#000000" stroke="none">
<path d="M3715 5589 c-1117 -50 -2028 -312 -2612 -751 -117 -87 -302 -264
-386 -368 -132 -164 -248 -366 -321 -562 -165 -443 -132 -929 94 -1386 274
-551 768 -993 1540 -1376 573 -284 1214 -494 2105 -687 l150 -33 440 -6 c434
-6 442 -7 549 -33 60 -15 111 -25 113 -23 10 9 -10 47 -48 93 -22 26 -57 82
-79 124 -119 229 -85 443 100 630 80 81 140 124 286 207 130 74 194 101 319
133 466 119 795 342 935 634 50 105 69 178 77 301 13 221 -69 497 -231 773
l-35 61 57 39 c253 172 800 522 830 532 70 22 206 81 234 100 15 11 84 84 153
161 l126 141 -6 46 c-25 191 -148 406 -333 584 -50 48 -93 78 -146 103 -153
70 -452 135 -789 171 l-159 17 -84 128 c-95 146 -127 172 -256 213 -187 59
-482 53 -826 -16 -98 -19 -107 -20 -225 -5 -447 56 -1074 78 -1572 55z m1455
-112 c270 -15 360 -15 482 1 54 7 206 12 343 12 221 0 252 -2 307 -21 125 -42
243 -146 295 -260 27 -59 28 -59 70 -59 172 0 498 -72 846 -187 152 -50 178
-66 252 -163 89 -116 175 -316 177 -414 1 -53 -42 -139 -108 -214 -47 -54
-152 -134 -191 -146 -20 -6 -22 -3 -28 71 -12 149 -25 217 -49 254 -70 106
-222 248 -314 295 -53 27 -55 27 -195 21 -351 -16 -771 -99 -1112 -222 -245
-87 -564 -259 -731 -393 -44 -35 -62 -60 -118 -171 -179 -352 -324 -815 -391
-1253 l-17 -107 28 -51 c107 -196 341 -274 493 -165 28 20 51 34 51 29 0 -12
-122 -239 -134 -247 -6 -4 -56 -6 -111 -4 -163 7 -295 63 -423 182 l-65 60 7
706 7 707 -53 38 -52 39 39 7 c63 11 72 10 104 -18 l31 -26 1 -271 1 -272 38
190 c20 105 49 255 64 335 l27 145 41 17 c23 10 43 16 45 14 3 -2 -23 -176
-57 -386 -33 -211 -59 -384 -57 -386 2 -2 55 189 118 425 l114 430 85 69 c62
50 136 95 278 167 106 54 191 100 189 102 -2 2 -88 -33 -191 -77 -149 -63
-198 -80 -236 -80 -77 0 -145 18 -171 46 -21 22 -24 35 -24 102 l0 77 98 12
c100 12 219 41 284 68 48 20 50 20 57 -19 8 -42 56 -96 86 -96 l22 0 -24 33
c-76 99 -57 227 52 350 23 26 40 50 38 53 -3 2 -26 -12 -52 -32 -57 -44 -131
-142 -147 -194 -9 -31 -20 -42 -48 -53 -132 -53 -340 -62 -436 -18 -59 26
-129 91 -157 146 -14 25 -23 67 -26 113 -4 66 -2 78 27 136 23 46 53 85 109
137 56 53 67 67 42 53 -19 -10 -66 -49 -103 -86 -79 -78 -135 -185 -144 -276
l-6 -55 -81 6 c-136 10 -225 53 -277 134 -56 90 -26 208 90 351 71 87 33 62
-72 -47 -48 -50 -91 -91 -95 -91 -15 0 -101 95 -111 123 -27 71 -8 132 68 211
l46 48 -41 -20 c-93 -47 -134 -101 -134 -177 0 -62 20 -97 98 -177 l66 -67 -3
-60 c-3 -71 20 -131 67 -175 l31 -29 -57 -61 c-145 -155 -218 -324 -210 -487
l3 -77 -30 15 c-16 9 -58 35 -91 59 -298 211 -278 537 53 872 46 46 83 88 83
93 0 17 -132 -58 -206 -116 -175 -139 -258 -315 -240 -513 7 -74 7 -74 -16
-69 -149 37 -419 81 -608 98 -165 15 -601 6 -735 -15 -314 -50 -562 -142 -780
-287 -104 -70 -255 -212 -315 -296 l-34 -48 45 40 c297 269 722 446 1214 506
131 16 498 16 650 0 149 -15 370 -53 515 -87 l109 -25 26 -57 c14 -31 37 -71
51 -90 l26 -33 -39 6 c-21 4 -97 20 -170 36 -300 66 -551 93 -863 93 -449 -1
-789 -70 -1110 -225 -113 -54 -310 -175 -325 -199 -3 -5 29 7 72 26 43 20 111
49 152 66 83 33 91 30 91 -33 0 -20 7 -76 15 -124 9 -48 14 -89 13 -90 -2 -1
-38 -20 -81 -43 -44 -23 -121 -69 -173 -103 -51 -33 -97 -58 -103 -55 -5 3
-11 -3 -14 -14 -3 -11 -2 -18 2 -16 4 3 20 -34 35 -81 15 -47 39 -108 52 -136
22 -49 22 -52 6 -71 -16 -20 -16 -20 1 -7 21 17 15 23 71 -73 26 -44 60 -96
77 -117 16 -20 29 -40 29 -43 0 -4 -44 -49 -97 -102 l-98 -96 90 74 c50 41 97
79 106 86 14 10 33 -6 132 -104 l116 -117 -92 -89 c-94 -93 -82 -88 43 16 51
43 76 57 85 50 7 -5 62 -42 121 -83 60 -40 108 -76 107 -78 -1 -2 -41 -45 -88
-95 l-87 -91 -41 23 c-131 73 -290 196 -446 345 -108 103 -106 89 5 -45 104
-126 272 -276 397 -355 26 -17 47 -34 47 -38 0 -4 -7 -22 -15 -40 -15 -30 -15
-31 0 -12 9 11 20 26 24 33 5 9 31 0 102 -37 51 -27 114 -57 139 -67 62 -23
65 -28 43 -61 -11 -15 -28 -44 -38 -63 l-17 -35 34 40 c18 21 40 48 49 59 16
20 17 20 130 -12 63 -18 119 -32 126 -32 7 0 35 -5 63 -11 l50 -11 -38 -46
c-30 -36 -84 -114 -97 -140 -7 -13 -417 82 -467 109 -37 20 -17 -2 29 -31 65
-42 190 -88 308 -115 72 -16 99 -27 96 -36 -6 -25 -11 -94 -5 -79 3 8 12 31
20 51 l15 35 177 -4 c97 -2 178 -5 180 -7 1 -1 -10 -36 -26 -76 -16 -41 -35
-97 -42 -126 l-13 -51 -54 -7 c-30 -4 -53 -9 -50 -11 3 -3 107 -5 232 -4 l227
0 -7 -22 c-16 -50 -53 -193 -51 -195 2 -3 287 -23 323 -23 21 0 22 -1 7 -36
-8 -20 -14 -55 -12 -77 3 -33 5 -38 12 -22 35 90 61 134 80 137 14 2 52 -20
108 -62 48 -36 88 -68 88 -72 0 -11 -74 -29 -180 -42 l-95 -13 50 -9 c28 -5
101 -9 163 -9 61 0 112 0 112 0 0 -1 -5 -26 -10 -57 -6 -31 -7 -65 -2 -78 7
-20 9 -18 21 21 17 58 39 99 52 99 6 0 47 -28 91 -62 80 -62 80 -62 52 -70
-16 -4 -69 -11 -119 -15 l-90 -6 35 -16 c24 -10 72 -15 151 -16 64 -1 121 -5
127 -9 16 -10 75 -96 69 -102 -7 -7 -432 102 -646 166 -283 85 -498 161 -662
234 -1144 507 -1811 1157 -1961 1909 -24 123 -40 475 -27 587 31 261 179 530
429 780 346 347 872 644 1570 889 506 177 1617 265 2620 208z m-793 -813 c41
-8 102 -14 136 -14 l62 0 19 -45 c24 -59 93 -119 164 -143 45 -15 56 -23 54
-38 -22 -129 -10 -185 49 -239 39 -35 40 -37 25 -60 -45 -68 -198 -134 -360
-155 -234 -32 -400 19 -491 149 -28 39 -30 49 -29 124 1 124 54 236 186 389
27 32 47 62 43 67 -3 6 11 3 31 -5 20 -9 71 -22 111 -30z m2822 -99 c97 -71
278 -280 330 -381 11 -22 23 -56 26 -76 8 -42 -13 -147 -25 -128 -6 9 -103
-57 -324 -219 -173 -127 -323 -234 -331 -238 -13 -4 -15 0 -9 23 4 19 78 101
218 244 210 214 276 294 276 335 0 29 -42 85 -122 163 l-65 63 -69 -53 c-318
-244 -661 -474 -680 -456 -2 2 91 91 207 198 208 193 210 194 268 302 39 70
55 110 48 115 -18 11 -435 7 -532 -6 -145 -19 -293 -51 -399 -87 -122 -41
-114 -32 24 29 130 58 313 118 445 147 55 12 109 26 120 31 25 11 245 26 419
28 l128 1 47 -35z m-4473 -381 l51 -6 -23 -75 c-13 -40 -24 -84 -24 -96 0 -41
-8 -43 -178 -39 l-163 4 7 37 c11 67 36 156 46 169 11 13 190 17 284 6z m-390
-41 c-3 -21 -11 -69 -16 -108 -11 -73 -19 -85 -60 -85 -23 0 -219 -38 -283
-55 l-28 -7 3 118 3 118 65 13 c58 12 254 39 304 42 16 1 18 -4 12 -36z m697
8 c60 -11 110 -21 111 -23 4 -3 -11 -141 -19 -173 -2 -11 -20 -28 -39 -39 -32
-17 -38 -17 -98 -3 -34 9 -81 19 -103 22 -66 11 -75 15 -75 38 0 25 31 128 50
170 16 33 26 33 173 8z m-1183 -88 c0 -21 3 -75 7 -120 5 -75 4 -83 -13 -89
-10 -3 -81 -31 -157 -61 -77 -30 -141 -52 -144 -50 -9 10 -44 202 -41 231 3
33 15 38 238 101 112 31 110 32 110 -12z m1882 -78 c250 -72 489 -186 586
-278 40 -37 86 -103 96 -134 6 -18 -7 -13 -86 34 -170 103 -398 198 -523 218
-33 5 -28 1 31 -23 139 -56 314 -174 490 -330 l89 -78 1 -135 c1 -73 -1 -121
-5 -104 -5 24 -28 44 -121 107 -290 196 -614 309 -928 325 -70 3 -125 3 -122
1 3 -3 52 -13 110 -22 383 -62 745 -218 998 -430 l72 -60 0 -113 c0 -62 -1
-113 -2 -113 -2 0 -68 33 -148 73 -312 158 -628 258 -935 298 -100 12 -408 13
-470 1 -33 -7 -20 -9 78 -15 446 -27 918 -176 1355 -430 l122 -71 0 -124 c0
-68 -3 -122 -7 -120 -5 2 -46 23 -92 47 -203 104 -487 191 -757 231 -187 27
-517 45 -614 32 l-75 -9 80 -2 c367 -6 846 -129 1230 -316 208 -102 231 -118
240 -161 4 -23 20 -51 41 -72 29 -29 34 -41 34 -82 0 -84 4 -83 -152 -18 -245
102 -481 164 -738 194 -251 29 -589 4 -765 -55 -68 -23 -73 -23 105 0 99 13
402 13 515 0 315 -36 604 -121 891 -262 l142 -69 7 -96 c4 -52 5 -97 3 -99 -1
-2 -52 10 -113 26 -188 49 -357 71 -565 71 -202 1 -311 -13 -464 -57 -87 -25
-190 -65 -184 -71 2 -1 48 5 103 14 149 24 561 23 715 -1 210 -33 536 -130
544 -161 2 -6 17 -63 34 -126 17 -63 29 -116 28 -117 -1 -2 -37 4 -80 12 -250
48 -526 34 -704 -37 -68 -27 -61 -34 14 -13 81 22 319 31 425 15 106 -15 249
-52 333 -86 l66 -26 60 -116 c33 -63 58 -117 56 -120 -3 -2 -44 1 -93 7 -121
15 -265 13 -345 -4 -110 -23 -104 -30 22 -26 119 3 234 -10 403 -46 77 -16 78
-17 132 -82 29 -37 83 -95 120 -130 36 -35 63 -66 60 -69 -3 -4 -209 6 -458
21 -335 20 -478 33 -552 48 l-100 21 -95 127 -95 126 -360 283 c-198 156 -428
334 -510 397 -221 166 -343 303 -440 495 -155 308 -177 712 -56 1015 113 281
363 528 731 724 153 81 395 180 442 181 14 0 82 -16 150 -35z m-1099 -111 l76
-7 0 -109 0 -110 -37 6 c-20 3 -89 8 -153 12 l-117 7 -6 45 c-3 25 -6 71 -6
103 l0 59 83 0 c46 0 118 -3 160 -6z m-323 -66 c0 -35 3 -80 6 -100 6 -36 6
-37 -32 -43 -22 -3 -88 -15 -149 -26 -60 -12 -117 -22 -125 -23 -20 -2 -58
193 -40 204 7 4 60 15 119 25 58 9 113 18 121 20 8 1 34 3 58 4 l42 1 0 -62z
m-432 -39 c2 -13 12 -59 23 -103 11 -43 18 -79 17 -81 -2 -1 -41 -16 -88 -35
-47 -18 -111 -46 -143 -62 -42 -21 -59 -25 -62 -16 -26 70 -65 195 -65 209 0
10 13 22 33 29 87 33 263 88 272 86 6 -1 11 -13 13 -27z m4907 13 c-86 -7
-286 -43 -398 -71 -204 -53 -377 -125 -520 -217 -66 -43 -69 -44 -97 -29 -17
9 -30 20 -30 25 0 25 176 132 300 183 164 67 338 105 540 115 121 7 296 2 205
-6z m35 -77 c0 -3 -41 -55 -91 -115 l-91 -109 -79 71 c-44 40 -79 74 -79 78 0
3 73 22 163 42 189 42 177 39 177 33z m-5280 -187 l28 -88 -62 -37 c-33 -20
-103 -65 -154 -100 l-93 -64 -60 126 c-58 120 -60 127 -42 140 10 8 90 51 178
96 l160 82 9 -34 c5 -19 21 -73 36 -121z m4901 -10 c115 -127 164 -198 236
-343 93 -185 134 -314 154 -479 21 -174 -24 -372 -116 -510 -149 -225 -437
-406 -792 -496 -229 -59 -345 -106 -477 -194 -87 -58 -193 -157 -234 -219 -14
-21 -29 -34 -33 -30 -4 4 -17 33 -29 63 -12 30 -44 97 -71 149 -28 51 -48 95
-46 97 5 5 207 104 212 104 2 0 16 -17 30 -37 29 -43 31 -40 9 12 -8 20 -14
38 -12 40 2 1 33 20 70 41 37 21 66 40 64 42 -3 2 -13 -1 -24 -7 -10 -5 -42
-19 -70 -30 l-51 -20 -47 82 c-26 45 -53 91 -60 102 -13 20 -9 23 78 60 51 22
95 41 98 42 3 2 29 -37 59 -87 30 -49 56 -88 58 -86 2 2 -12 43 -31 92 -20 48
-36 93 -36 99 0 6 15 19 33 29 17 10 56 37 86 59 l54 40 19 -24 19 -24 -17 34
c-9 19 -47 85 -84 147 l-68 112 57 31 c63 34 60 37 -19 16 -30 -8 -59 -15 -63
-15 -5 0 26 65 67 144 42 79 76 147 76 151 0 4 -34 5 -75 1 -52 -5 -75 -3 -75
4 0 20 71 184 115 265 24 44 72 120 106 168 l62 88 29 -28 c46 -44 129 -170
166 -252 l34 -76 -6 95 c-7 109 -27 202 -56 262 -11 23 -19 43 -17 44 2 2 174
-62 384 -143 l381 -146 15 -56 c56 -203 49 -392 -19 -556 -75 -180 -131 -256
-250 -341 -76 -54 -203 -114 -304 -144 -103 -30 -262 -94 -340 -137 -61 -32
-130 -88 -130 -104 0 -4 66 18 148 48 81 29 208 72 282 94 238 71 404 163 526
290 99 104 140 195 169 374 50 306 -18 599 -193 831 -57 74 -112 135 -112 122
0 -4 23 -44 52 -90 52 -83 108 -197 134 -270 12 -36 12 -39 -2 -34 -13 5 -681
392 -692 402 -9 7 103 79 193 124 90 44 213 87 257 89 9 1 62 -50 119 -111z
m-3833 54 c-7 -10 -40 -49 -74 -86 l-61 -67 -11 38 c-7 21 -18 59 -26 86 l-15
47 100 0 c95 0 99 -1 87 -18z m-244 -67 c13 -38 32 -89 44 -112 l22 -42 -33
-5 c-17 -2 -81 -13 -142 -23 -60 -10 -114 -18 -119 -18 -11 0 -77 128 -96 186
-7 22 -10 42 -6 46 13 13 199 42 254 40 l54 -2 22 -70z m-403 -22 c6 -21 29
-73 51 -117 21 -43 37 -81 34 -83 -3 -3 -50 -20 -105 -39 -56 -18 -115 -41
-133 -50 -37 -19 -28 -29 -105 120 -31 61 -48 105 -43 110 10 10 256 95 277
95 6 1 17 -16 24 -36z m-313 -215 l59 -118 -63 -35 c-35 -20 -94 -56 -131 -81
-49 -33 -72 -43 -83 -36 -8 5 -48 57 -88 117 l-74 108 49 30 c83 52 248 137
259 134 7 -1 39 -55 72 -119z m3962 30 c0 -4 -21 -36 -46 -70 -95 -129 -167
-312 -180 -459 -6 -61 -9 -68 -32 -74 -14 -3 -28 -2 -33 2 -12 12 18 166 52
267 35 104 103 241 161 321 38 54 41 56 59 39 10 -9 19 -21 19 -26z m-3467
-155 c30 -43 69 -91 86 -107 17 -17 31 -35 31 -41 0 -8 -25 -14 -64 -18 -36
-3 -98 -17 -138 -31 l-73 -24 -29 26 c-32 31 -156 183 -156 192 0 4 37 18 83
33 201 64 193 65 260 -30z m2706 -174 c-6 -90 -9 -185 -7 -211 l3 -46 134 64
c74 35 136 62 139 60 7 -8 -39 -68 -120 -154 -43 -46 -78 -87 -78 -91 0 -11
70 -76 114 -105 21 -14 49 -26 62 -26 12 0 85 36 161 80 76 44 141 80 146 80
4 0 -8 -31 -27 -69 -23 -44 -53 -85 -88 -116 -112 -101 -208 -116 -410 -64
-115 30 -157 139 -128 329 12 74 102 442 107 436 2 -2 -1 -77 -8 -167z m-3079
95 c18 -25 58 -76 88 -112 52 -60 55 -66 37 -76 -10 -6 -61 -39 -112 -73 -52
-35 -98 -63 -103 -63 -13 0 -220 205 -220 218 0 19 232 151 266 152 6 0 25
-21 44 -46z m476 -226 c-3 -50 -8 -93 -11 -96 -10 -11 -195 120 -195 138 0 4
30 15 68 24 160 37 146 43 138 -66z m-228 -41 c37 -30 88 -68 115 -86 43 -30
54 -51 24 -51 -7 0 -50 -23 -96 -50 -46 -28 -89 -50 -94 -50 -13 0 -81 39
-180 103 l-77 50 36 25 c32 21 194 111 202 112 2 0 33 -24 70 -53z m235 -209
c18 -105 19 -128 5 -128 -20 0 -169 44 -192 57 -17 10 -9 16 70 56 49 25 94
46 100 46 7 1 14 -14 17 -31z m-171 -157 c57 -27 116 -53 131 -56 15 -4 27 -9
27 -11 0 -2 -40 -43 -89 -92 l-89 -88 -68 23 c-96 32 -224 94 -224 107 0 17
180 165 201 166 3 0 53 -22 111 -49z m3441 -299 c-19 -15 -149 -82 -158 -82
-2 0 -18 26 -35 58 -17 31 -36 65 -42 74 -11 15 -7 28 21 80 54 101 51 101
147 -15 77 -94 83 -103 67 -115z m-3185 110 c52 -135 52 -125 -4 -117 -87 11
-209 37 -217 45 -5 4 33 44 84 89 51 44 95 78 98 75 3 -2 20 -44 39 -92z
m2572 -218 c87 -18 93 -21 121 -59 l29 -40 -37 -13 c-21 -7 -78 -24 -128 -37
l-90 -23 -76 72 c-41 40 -90 83 -107 96 -29 22 -32 28 -32 80 l0 57 114 -57
c84 -42 139 -62 206 -76z m396 -1 c-2 -3 -46 -22 -98 -44 l-93 -38 -22 27
c-29 34 -29 42 1 42 46 0 75 19 112 75 l37 55 34 -56 c19 -31 32 -59 29 -61z
m-2799 -116 l52 -82 -37 -7 c-47 -9 -179 -8 -212 1 -25 7 -24 7 25 61 57 61
108 110 115 109 3 0 28 -37 57 -82z m2673 -144 c28 -39 47 -74 43 -76 -5 -3
-59 -19 -122 -37 -106 -30 -114 -31 -124 -15 -5 9 -38 53 -73 96 -41 51 -59
81 -52 84 7 3 63 20 123 39 l110 33 23 -26 c12 -14 45 -58 72 -98z m-350 -65
c54 -62 76 -94 67 -99 -6 -3 -43 -12 -81 -20 l-69 -13 -69 74 c-87 96 -88 111
-5 132 34 9 65 16 69 17 4 0 44 -40 88 -91z m-2053 -156 c-35 -16 -225 -48
-233 -39 -7 7 36 87 81 149 l34 47 73 -72 73 -72 -28 -13z m2245 -87 c29 -41
74 -111 99 -155 l47 -80 -34 -78 c-19 -42 -34 -83 -34 -89 0 -29 -18 -7 -58
75 -40 79 -42 88 -27 97 52 31 105 68 102 71 -2 2 -31 -7 -65 -21 -34 -14 -65
-25 -69 -25 -5 0 -21 21 -38 48 -16 26 -51 75 -77 110 -27 35 -48 66 -48 70 0
6 115 47 142 51 4 1 31 -33 60 -74z m-1998 -47 c45 -34 93 -72 108 -84 l27
-22 -64 -11 c-87 -15 -255 -26 -255 -16 0 19 83 195 93 195 5 0 47 -28 91 -62z
m1780 11 c61 -68 138 -171 132 -177 -7 -7 -127 -31 -156 -32 -28 0 -30 4 -81
149 -16 47 -29 91 -29 98 0 9 14 13 44 13 40 0 48 -4 90 -51z m186 -241 c8
-13 33 -56 56 -96 36 -62 41 -78 34 -103 -5 -16 -12 -65 -16 -109 -3 -44 -10
-80 -13 -80 -9 0 -90 85 -133 140 -40 51 -128 193 -128 207 0 9 137 58 170 61
8 1 22 -8 30 -20z"/>
<path d="M5120 5353 c8 -2 101 -28 205 -56 l190 -52 7 -74 c12 -140 95 -255
217 -302 37 -14 88 -23 154 -27 53 -2 97 -7 97 -11 0 -3 -7 -15 -15 -25 -37
-49 -7 -133 55 -154 35 -13 37 -9 10 25 -13 17 -20 41 -20 70 0 45 25 103 45
103 16 0 138 60 158 77 35 32 15 31 -60 -4 -96 -44 -200 -54 -306 -29 -167 39
-247 119 -247 248 0 107 1 108 85 108 l74 0 16 -57 c19 -66 53 -116 99 -144
58 -35 70 -23 22 24 -46 44 -64 93 -52 142 10 38 21 30 39 -27 32 -102 106
-161 197 -159 58 1 95 17 115 47 9 14 20 22 24 20 11 -7 61 86 61 113 0 34 20
25 77 -34 47 -48 53 -52 47 -27 -26 105 -66 165 -130 193 -42 19 -45 19 -306
-5 -441 -41 -409 -41 -641 -7 -190 28 -257 36 -217 24z"/>
<path d="M3110 5093 c-14 -2 -67 -13 -119 -24 -88 -20 -97 -24 -147 -73 -47
-46 -54 -57 -54 -92 0 -38 -2 -40 -48 -57 -94 -33 -140 -90 -123 -152 9 -35 9
-35 -22 -35 -58 0 -169 29 -213 55 -75 44 -95 112 -46 157 52 47 94 71 190
105 l97 33 -65 -6 c-200 -20 -330 -96 -330 -193 0 -56 32 -99 98 -129 49 -23
74 -27 181 -30 112 -4 129 -7 177 -32 60 -32 197 -51 217 -31 8 8 2 11 -24 11
-56 0 -134 28 -168 59 -46 43 -43 89 7 131 55 46 76 48 117 12 19 -17 58 -38
87 -47 69 -20 212 -29 263 -17 39 10 39 10 -25 11 -83 1 -174 25 -223 57 -43
28 -56 52 -36 65 11 6 8 9 -8 9 -17 0 -23 6 -23 23 0 66 86 125 251 172 78 22
72 31 -11 18z"/>
<path d="M993 3347 c-35 -5 -63 -13 -63 -18 0 -8 79 -191 85 -198 6 -5 156
121 153 128 -2 3 -11 27 -22 54 -18 44 -21 47 -55 46 -20 -1 -64 -6 -98 -12z"/>
<path d="M755 3038 c4 -51 9 -95 10 -96 2 -2 32 11 67 30 63 33 63 33 66 80 3
45 1 48 -25 54 -15 3 -44 10 -63 15 -64 16 -63 18 -55 -83z"/>
<path d="M1127 3032 l-59 -27 58 -73 c31 -39 60 -72 64 -72 9 0 80 107 80 121
0 19 -52 79 -69 78 -9 0 -42 -13 -74 -27z"/>
<path d="M1097 2519 l-78 -40 30 -37 c61 -74 120 -137 124 -132 2 3 23 37 46
77 47 80 47 85 -11 140 l-33 31 -78 -39z"/>
<path d="M1719 2099 c-16 -34 -29 -62 -27 -64 2 -1 42 -21 91 -43 l87 -41 0
79 c0 43 -4 81 -8 84 -4 2 -31 14 -60 25 l-52 21 -31 -61z"/>
<path d="M6294 2805 c0 -64 -4 -108 -12 -122 -32 -57 -130 -70 -212 -28 -27
13 -51 29 -55 35 -3 5 -15 15 -26 21 -19 10 -20 9 -8 -13 42 -79 109 -128 175
-128 48 0 142 53 161 90 17 34 15 91 -6 175 l-18 70 1 -100z"/>
</g>
</svg>
